<?xml version="1.0" encoding="utf-8"?>
<!-- Generator: Adobe Illustrator 15.1.0, SVG Export Plug-In . SVG Version: 6.00 Build 0)  -->
<!DOCTYPE svg PUBLIC "-//W3C//DTD SVG 1.0//EN" "http://www.w3.org/TR/2001/REC-SVG-20010904/DTD/svg10.dtd">
<svg version="1.0"
	 id="trezor" xmlns:dc="http://purl.org/dc/elements/1.1/" xmlns:sodipodi="http://sodipodi.sourceforge.net/DTD/sodipodi-0.dtd" xmlns:svg="http://www.w3.org/2000/svg" xmlns:rdf="http://www.w3.org/1999/02/22-rdf-syntax-ns#" inkscape:export-ydpi="300" xmlns:inkscape="http://www.inkscape.org/namespaces/inkscape" inkscape:export-xdpi="300" inkscape:export-filename="/home/stick/work/bitcoin/share-bitkey/logo/logo-black-horiz-2.png" sodipodi:docname="logo-black-horiz-2.svg" inkscape:version="0.48.4 r9939" xmlns:cc="http://creativecommons.org/ns#"
	 xmlns="http://www.w3.org/2000/svg" xmlns:xlink="http://www.w3.org/1999/xlink" x="0px" y="0px" width="532.912px"
	 height="356.031px" viewBox="0 0 532.912 356.031" enable-background="new 0 0 532.912 356.031" xml:space="preserve">
<sodipodi:namedview  fit-margin-bottom="20" fit-margin-right="20" fit-margin-top="20" fit-margin-left="20" gridtolerance="10" inkscape:current-layer="svg2" inkscape:window-maximized="1" inkscape:window-y="25" inkscape:window-x="0" inkscape:cx="274.79362" inkscape:window-height="1129" inkscape:cy="-36.370891" showgrid="false" inkscape:window-width="1920" inkscape:pageshadow="2" inkscape:zoom="0.76280916" inkscape:pageopacity="0" guidetolerance="10" pagecolor="#ffffff" bordercolor="#666666" objecttolerance="10" borderopacity="1" id="namedview30">
	</sodipodi:namedview>
<rect id="rect25" x="320.944" y="717.998" display="none" fill="#FFFFFF" stroke="#000000" width="11" height="35"/>
<path id="path7" inkscape:connector-curvature="0" fill="#FFFFFF" d="M266.81,35.978c-23.564,0-42.667,19.104-42.667,42.667v15.953
	c-8.271,1.479-16.615,3.523-16.615,6.133v83.585c0,0,0,2.346,2.553,3.358c9.428,3.752,46.438,16.869,54.934,19.873
	c1.118,0.396,1.354,0.386,1.742,0.386c0.407,0,0.618,0.016,1.729-0.379c8.479-2.996,45.618-16.146,54.986-19.855
	c2.433-0.965,2.503-3.348,2.503-3.348v-83.618c0-2.609-8.229-4.657-16.498-6.138V78.644
	C309.476,55.082,290.373,35.978,266.81,35.978z M266.81,56.369c13.859,0,22.292,8.416,22.292,22.275v13.898
	c-15.65-1.14-28.948-1.14-44.6,0V78.644C244.503,64.785,252.948,56.369,266.81,56.369z M266.755,113.061
	c19.39,0.031,35.688,1.476,35.688,4.235c0,0,0,51.322,0,52.081s-0.119,0.887-0.84,1.161c-0.721,0.273-33.15,11.993-33.15,11.993
	s-1.33,0.441-1.696,0.441c-0.414,0-1.745-0.459-1.745-0.459s-32.416-11.708-33.146-11.984c-0.728-0.275-0.822-0.416-0.822-1.183
	c0-0.844,0-52.053,0-52.053C231.043,114.458,247.367,113.031,266.755,113.061z"/>
<g id="g3222" transform="matrix(0.95575135,0,0,0.95575135,91.363135,-287.43374)">
	<path id="path13" inkscape:connector-curvature="0" fill="#FFFFFF" d="M-34.63,634.089v-59.704h-21.764v-21.4h67.972v21.4h-21.645
		v59.704H-34.63z"/>
	<path id="path15" inkscape:connector-curvature="0" fill="#FFFFFF" d="M66.663,634.089l-11.184-25.534H46.6v25.534H22.038v-81.104
		h43.286c18.967,0,29.184,12.646,29.184,27.845c0,13.986-8.149,21.4-14.591,24.563l14.714,28.695L66.663,634.089L66.663,634.089z
		 M69.581,580.708c0-4.376-3.891-6.323-8.026-6.323H46.598v12.766h14.957C65.69,587.151,69.581,585.21,69.581,580.708z"/>
	<path id="path17" inkscape:connector-curvature="0" fill="#FFFFFF" d="M107.374,634.089v-81.104H168.9v21.4h-36.965v8.027h36.116
		v21.402h-36.116v8.873H168.9v21.402H107.374L107.374,634.089z"/>
	<path id="path19" inkscape:connector-curvature="0" fill="#FFFFFF" d="M181.688,634.106v-19.455l30.883-40.25h-30.883v-21.4h63.349
		v19.334l-31.007,40.37h31.857v21.4H181.688L181.688,634.106z"/>
	<path id="path21" inkscape:connector-curvature="0" fill="#FFFFFF" d="M251.903,593.617c0-24.928,19.33-41.952,44.381-41.952
		c25.047,0,44.385,17.024,44.385,41.952c0,24.925-19.338,41.948-44.385,41.948C271.233,635.565,251.903,618.542,251.903,593.617z
		 M315.741,593.617c0-11.311-7.661-20.309-19.458-20.309c-11.792,0-19.458,8.998-19.458,20.309c0,11.307,7.663,20.304,19.458,20.304
		C308.079,613.919,315.741,604.922,315.741,593.617z"/>
	<path id="path23" inkscape:connector-curvature="0" fill="#FFFFFF" d="M395.752,634.106l-11.182-25.533h-8.879v25.533h-24.561
		v-81.103h43.284c18.972,0,29.186,12.647,29.186,27.844c0,13.986-8.148,21.4-14.595,24.563l14.716,28.695H395.752L395.752,634.106z
		 M398.672,580.724c0-4.377-3.889-6.323-8.025-6.323h-14.958v12.766h14.958C394.779,587.167,398.672,585.226,398.672,580.724z"/>
</g>
</svg>
